<svg xmlns="http://www.w3.org/2000/svg" xmlns:xlink="http://www.w3.org/1999/xlink" width="800" zoomAndPan="magnify" viewBox="0 0 600 599.999999" height="800" preserveAspectRatio="xMidYMid meet" version="1.0"><defs><clipPath id="2cefe82a51"><path d="M 61.042969 84.941406 L 538.792969 84.941406 L 538.792969 514.691406 L 61.042969 514.691406 Z M 61.042969 84.941406 " clip-rule="nonzero"/></clipPath><clipPath id="f0aed7fae1"><path d="M 61.042969 228 L 212 228 L 212 329 L 61.042969 329 Z M 61.042969 228 " clip-rule="nonzero"/></clipPath></defs><g clip-path="url(#2cefe82a51)"><path fill="#395bf8" d="M 538.945312 84.941406 L 462.484375 84.941406 C 444.5625 84.941406 430.222656 98.082031 430.222656 98.082031 L 61.042969 443.367188 L 137.507812 443.367188 C 156.625 443.367188 169.765625 430.226562 169.765625 430.226562 L 218.753906 386.019531 L 333.449219 500.714844 C 333.449219 500.714844 347.785156 515.054688 368.097656 515.054688 L 443.367188 515.054688 L 267.738281 339.425781 Z M 538.945312 84.941406 " fill-opacity="1" fill-rule="nonzero"/></g><g clip-path="url(#f0aed7fae1)"><path fill="#ffffff" d="M 211.585938 283.269531 L 170.960938 242.648438 C 170.960938 242.648438 156.625 228.3125 136.3125 228.3125 L 61.042969 228.3125 L 161.402344 328.671875 Z M 211.585938 283.269531 " fill-opacity="1" fill-rule="nonzero"/></g></svg>